<svg version="1.0" xmlns="http://www.w3.org/2000/svg" width="1600" height="744" viewBox="0 0 16000 7440"><path d="M3819 5418c-45-33-311-243-399-317-25-20-72-57-105-82-52-38-241-186-415-324-30-24-104-82-165-130-60-47-117-91-125-98s-47-37-85-67c-39-30-123-97-189-150-65-52-138-109-161-127-54-40-59-55-36-101 10-20 33-82 50-137 38-124 120-366 156-460 15-38 31-83 35-100 5-16 23-70 40-120 17-49 38-110 45-135 12-40 49-144 91-255 8-22 48-139 89-260 40-121 90-263 110-315s51-142 69-200c19-57 38-106 44-108s39 21 74 50c35 30 117 95 184 145 66 51 127 99 134 109 8 9 39 34 70 55 30 21 87 65 127 96 40 32 125 99 189 148 64 50 139 109 166 133 27 23 57 42 66 42 10 0 34-16 53-36 18-20 54-48 79-62s63-43 85-63 63-54 90-74c28-21 66-52 86-69s60-49 89-71 80-63 114-91c33-27 108-85 166-129 58-43 133-102 168-132 35-29 67-51 71-49 4 3 20 45 35 93s32 99 38 113 26 70 45 125 38 104 43 110 16 42 25 80c9 39 21 79 27 90s19 45 29 75 29 87 44 125c14 39 37 106 51 150s31 94 39 110c13 29 49 136 116 345 17 52 39 113 49 135s34 92 55 155 60 178 87 255c72 200 73 181-17 250-43 33-109 87-149 119-39 32-114 91-166 129-52 39-120 92-150 117-30 26-93 75-140 111-47 35-159 123-250 195-667 531-800 634-817 634-5 0-29-15-54-32zm101-397c5-20 10-46 10-59 0-24 23-116 65-252 14-47 34-116 45-155 11-38 37-131 59-205 21-74 53-187 71-250 17-63 56-198 86-300s61-210 69-240c9-30 24-84 35-120 31-101 30-142-2-157-13-6-72-50-133-98-60-47-133-103-160-124-28-21-76-61-106-90-64-58-102-66-135-29-27 30-305 251-386 307-42 28-70 55-75 71-4 15 3 54 20 105 15 44 33 105 41 135 9 30 31 107 50 170s46 158 61 210 36 122 45 155c10 33 26 94 36 135 9 41 25 100 34 130s27 91 40 135c12 44 31 105 41 135 30 89 92 331 97 378 3 33 9 45 25 51 35 13 56 1 67-38zm-253 23c3-10 1-31-6-48-21-51-110-335-136-431-20-76-56-205-94-340-5-16-25-86-46-155s-46-159-56-200c-11-41-26-97-34-125-50-168-65-226-65-248 0-56-49-58-105-3-31 29-167 138-340 271-43 33-112 88-154 123s-111 86-153 115c-95 63-100 83-35 124 24 16 73 52 108 81 86 71 267 215 359 285 41 31 104 81 140 110 36 28 108 85 160 125 150 116 270 213 324 263 78 70 120 87 133 53zm523-35c29-27 75-68 104-89 28-21 74-57 101-79 28-23 95-76 150-118s143-110 195-152c51-42 115-92 141-111s126-98 222-175c97-77 191-149 209-160 25-15 33-27 33-49 0-25-10-35-66-70-67-42-95-62-203-152-33-27-104-84-157-125-139-108-248-194-296-234-63-53-113-42-113 26 0 12-13 63-30 113-27 86-43 148-75 291-7 33-27 101-44 151-17 51-42 138-57 195-14 57-30 112-35 121-5 10-14 44-20 75-6 32-17 78-24 103s-21 72-30 105-21 71-26 83c-5 13-18 58-30 99-11 41-29 92-39 114-11 21-20 50-20 64 0 21 5 25 28 25 21 0 44-14 82-51zM2459 3847c5-13 38-47 73-75 34-28 93-74 129-104 161-128 233-186 284-223 137-102 215-167 215-180 0-8-6-29-14-47s-40-127-71-243c-32-115-66-239-77-275s-32-112-47-170c-16-57-35-108-43-114-26-16-46 1-58 46-6 24-37 120-69 213-131 390-188 553-206 592-8 17-15 37-15 45-1 7-8 31-16 53s-25 74-38 115c-44 138-76 225-106 281-35 65-37 84-12 98 31 18 62 13 71-12zm2916 3c4-11-6-47-24-88-40-91-76-190-173-472-44-129-109-316-143-415-111-322-125-367-125-390 0-31-37-75-64-75-20 0-25 9-38 68-14 60-65 244-118 422-10 36-24 85-29 110s-19 77-31 115c-12 39-24 93-27 121l-5 52 53 35c56 37 110 79 270 208 52 41 112 88 134 104 69 51 215 177 215 187 0 11 57 37 82 38 9 0 19-9 23-20zm-1972-758c87-80 262-215 304-235 13-5 25-19 29-29 7-22-20-68-39-68-7 0-37-20-66-45s-63-51-75-57c-26-14-174-130-323-255-108-91-132-103-163-83-13 8-12 15 7 52 24 47 37 88 82 253 16 61 43 157 59 215 37 130 60 214 73 263 14 53 46 50 112-11zm1051 36c42-165 61-241 72-278 6-25 33-121 59-215 25-93 58-195 72-227 30-67 28-92-8-96-25-3-83 39-228 165-85 74-277 225-343 269-82 55-89 80-32 113 50 30 220 161 294 227 60 53 107 70 114 42zm2171 2291c-22-5-60-14-84-20-52-12-162-90-205-145-17-21-40-64-54-96-20-50-22-64-12-92 31-96 134-100 187-7 101 178 284 214 422 84 67-65 57-115-46-215-60-58-82-74-248-186-138-92-263-219-293-295-41-109-24-244 44-332 57-75 167-133 282-150 73-11 93-10 160 5 43 9 99 27 127 40 100 46 205 187 205 275 0 53-44 95-99 95-48 0-74-21-101-84-28-67-95-118-179-137-59-13-157 16-212 62-54 45-64 66-55 114 10 53 132 161 358 316 121 83 214 178 257 263 31 63 33 72 30 149-3 67-10 93-34 141-36 71-94 131-161 167-75 40-217 63-289 48zm1203-5c-15-8-32-23-38-34-6-12-10-227-10-614v-595l-21-12c-14-7-48-9-98-4-136 12-200-19-201-98 0-29 7-45 29-68l29-29h357c225 0 363 4 376 10 24 13 49 61 49 94 0 14-12 39-27 56-28 30-29 30-151 34-77 2-128 8-137 16-13 11-15 91-15 596 0 415-3 590-11 608-11 24-63 56-91 56-7-1-25-7-40-16zm1205 0c-105-23-171-66-242-158-78-100-81-124-81-554 0-208 5-396 10-419 29-123 112-233 212-279 56-25 76-29 186-32 121-4 124-4 185 27 113 55 172 119 218 236 23 59 24 67 26 440 3 403 2 408-47 520-23 54-111 149-167 182-48 28-146 53-203 52-19-1-63-7-97-15zm187-214c20-10 56-40 82-68 35-38 48-60 53-93 3-24 5-195 3-379l-3-335-34-52c-19-29-52-65-74-80-36-25-50-28-116-28-69 0-80 3-122 32-60 42-109 98-109 126-1 83-1 671 0 709 0 41 6 54 37 89 40 45 108 88 156 100 39 9 81 2 127-21zm1481 213c-17-9-37-25-43-36-6-12-10-88-9-196 0-124-3-182-12-197-28-48-69-86-119-109-47-22-66-25-176-25-68 0-132 5-143 11-19 10-20 21-19 242 1 128 1 240 1 250-1 10-13 29-27 42-29 27-80 33-115 15-44-24-44-31-39-690 6-701-1-647 81-702 54-36 89-45 234-56 191-15 314 20 411 117 81 81 98 138 98 331 0 147-1 158-26 211-15 31-40 67-57 79-40 28-39 51 4 98 69 78 78 113 84 341 6 219 2 247-40 268-43 20-55 21-88 6zm-170-792c90-51 119-106 119-224 0-167-91-240-296-239-66 1-114 6-137 16l-36 14-3 209c-2 114 1 216 5 226 13 29 43 34 176 29 113-4 131-7 172-31zm1524 800c-53-9-101-36-117-64-10-17-14-163-16-650-3-620-3-630 18-672 38-79 46-80 423-80h329l24 28c31 37 34 107 4 137-23 23-22 23-357 21-149-1-240 2-253 9-18 10-19 20-18 185 1 116 5 178 12 185 7 5 107 10 224 12l213 3 19 25c28 37 32 77 13 117-28 60-59 66-271 60-136-4-186-2-195 7-19 19-15 465 4 477 8 5 140 9 294 9 314 0 316 0 335 69 12 45 3 76-30 106-21 19-37 20-319 21-163 1-314-1-336-5zm1390-1c-159-30-192-46-276-130-83-83-118-184-85-249 22-41 58-55 103-40 25 8 41 24 64 65 81 143 219 191 356 125 102-50 137-116 99-190-23-44-142-139-330-265-109-72-236-197-271-266-60-119-38-299 47-376 95-87 153-114 292-133 76-11 166 8 254 53 62 31 138 98 148 129 4 12 16 34 27 48 13 19 20 45 21 84 1 51-2 59-27 81-34 29-96 33-119 7-8-10-25-39-37-64-27-59-88-107-163-130-50-16-67-17-106-7-107 26-192 92-192 149 0 19 7 44 15 56 35 50 131 130 302 253 187 135 234 181 292 282 29 51 32 66 34 150 2 82-1 99-24 148-29 61-113 146-175 178-73 37-180 55-249 42zm-2147-30c-26-27-30-36-24-68 3-20 6-323 6-673 0-719-5-675 77-686 37-5 46-2 73 25l30 30v1348l-28 27c-40 39-93 37-134-3zM6655 3371c-22-4-69-21-105-38-96-44-160-120-211-250-14-35-21-755-8-832 12-74 51-145 117-215 67-69 134-102 233-116 132-19 258 16 337 93 81 78 90 121 38 173-48 48-97 47-153-1-48-41-122-75-164-75-70 0-182 83-209 155-6 16-10 167-10 369 0 394 4 420 70 480 100 90 215 87 322-9 45-42 91-46 132-14 38 30 49 64 35 108-20 62-47 89-132 131-72 36-92 41-167 45-47 2-103 0-125-4zm1159-1c-137-29-263-147-305-284-17-55-19-98-19-426 0-450 8-495 105-608 86-100 192-139 350-128 171 12 284 94 346 253l34 88v770l-28 77c-59 158-186 252-357 262-47 3-104 1-126-4zm166-207c52-19 122-82 145-129 23-49 22-731-1-776-26-49-93-116-125-123-16-4-31-11-34-16-11-17-84-9-137 15-29 13-68 38-86 57-68 67-67 60-70 422-4 398-2 413 71 485 83 81 146 99 237 65zm3332 206c-46-9-90-38-109-72-9-17-12-176-13-647 0-704-3-673 75-717 39-22 47-23 365-23 290 0 328 2 350 17 35 24 40 33 40 80 0 34-5 46-31 67l-31 26h-277c-206 0-281 3-294 13-14 10-17 38-21 172-5 220-23 205 240 205h202l26 31c27 32 30 46 20 99-5 21-17 38-38 51-28 17-52 19-233 19-130 0-204 4-208 11-12 18-7 461 5 473 7 7 111 13 306 16l296 5 19 24c21 25 25 81 9 112-25 46-50 49-362 48-161-1-312-5-336-10zm1213 2c-55-10-80-25-104-65-21-34-22-38-19-668 3-713 0-681 78-712 34-14 88-16 361-16 201 0 328 4 340 10 58 31 61 127 6 160-29 18-53 20-297 21-146 1-276 4-290 8l-25 7-1 172c-1 164 0 174 20 187 16 12 62 15 219 15h199l30 32c26 28 29 38 25 72-3 24-16 49-32 65l-26 26-204 1c-143 1-209 4-219 13-11 10-14 52-13 239l2 226 25 13c18 9 99 13 303 13h278l26 26c35 35 28 97-17 137l-30 27-298-1c-163-1-315-5-337-8zm-3720-25l-24-25 2-660c2-652 2-660 23-688 42-57 50-58 413-61l334-3 29 27c40 40 40 104-1 145l-29 29h-277c-171 0-284 4-296 10-18 10-19 23-19 174 0 140 2 166 17 177 12 11 61 14 212 14 137 1 203 5 219 13 34 19 53 73 41 117-18 64-34 68-263 67-164-1-207 2-216 13-8 10-11 100-10 320l1 305-25 25c-35 34-97 35-131 1zm1219 9c-45-31-46-38-42-706l3-634 23-33c48-66 51-67 424-70l338-3 25 25c14 14 26 34 26 46 1 11 2 26 3 33 4 25-16 66-39 81-20 13-72 16-317 18l-293 3-1 173c0 140 2 175 14 185 11 8 73 13 206 15 105 1 201 5 213 7 28 7 53 53 53 100 0 48-37 82-98 91-25 4-115 4-199 0-138-6-154-5-170 11s-18 42-17 298c0 154-3 295-8 312-15 55-97 82-144 48z" fill="#fdfdfd"/></svg>